# xmcd
#
# Track frame offsets:
#	150
#	12830
#	21495
#	38552
#	51357
#	66025
#	77630
#	90312
#	109055
#	120612
#	134655
#	148430
#	158245
#	165642
#
# Disc length: 2381 seconds
#
# Revision: 0
# Processed by: cddbd v1.4PL0 Copyright (c) Steve Scherf et al.
# Submitted via: audiograbber 1.80.04
#
DISCID=bc094b0e
DTITLE=Captain Beefheart and His Magic Band - Grow Fins rarities [1965-1982] CD 1
DYEAR=1999
DGENRE=
TTITLE0=Obeah Man
TTITLE1=Just Got Back From The City
TTITLE2=I'm Glad
TTITLE3=Triple Combination
TTITLE4=Here I Am I Always Am
TTITLE5=Here I Am I Always Am
TTITLE6=Somebody In My Home
TTITLE7=Tupelo
TTITLE8=Evil Is Going On
TTITLE9=Old Folks Boogie
TTITLE10=Call On Me
TTITLE11=Sure  Nuff n Yes I Do
TTITLE12=Yellow Brick Road
TTITLE13=Plastic Factory
EXTD=CD 1 of 5 CD collection Grow Fins, rarities [1965-1982]
EXTT0=
EXTT1=
EXTT2=
EXTT3=
EXTT4=
EXTT5=
EXTT6=
EXTT7=
EXTT8=
EXTT9=
EXTT10=
EXTT11=
EXTT12=
EXTT13=
PLAYORDER=
